ffmpeg started on 2025-06-03 at 19:58:40
Report written to "D:\Convert\FFMetrics\reports\ssim_report-6.txt"
Log level: 32
Command line:
ffmpeg -hide_banner -nostdin -i "G:\\\xc0\xed\xe8\xec\xe5\\\xce\xed\xe3\xee\xe8\xed\xe3\xe8\\!_36_\xce\xf1\xe5\xed\xfc_2024\\DreamCast\\\xc1\xe0\xf8\xed\xff \xc1\xee\xe3\xe0\\\xd2\xc2-2\\[DC] Kami no Tou - Ouji no Kikan - 17_Telegram_HEVC.mkv" -i "G:\\\xc0\xed\xe8\xec\xe5\\\xce\xed\xe3\xee\xe8\xed\xe3\xe8\\!_36_\xce\xf1\xe5\xed\xfc_2024\\DreamCast\\\xc1\xe0\xf8\xed\xff \xc1\xee\xe3\xe0\\\xd2\xc2-2\\[DC] Kami no Tou - Ouji no Kikan - 17_Telegram.mp4" -lavfi "[0:v]settb=AVTB,setpts=PTS-STARTPTS,format=pix_fmts=yuv420p10,fps=24000/1001,scale=1920:1080:flags=bicubic[main];[1:v]settb=AVTB,setpts=PTS-STARTPTS,format=pix_fmts=yuv420p,fps=24000/1001,scale=1920:1080:flags=bicubic[ref];[main][ref]ssim=eof_action=endall:stats_file='D\\:/Convert/FFMetrics/logs/ssim_logfile-6.txt'" -f null -
Input #0, matroska,webm, from 'G:\Аниме\Онгоинги\!_36_Осень_2024\DreamCast\Башня Бога\ТВ-2\[DC] Kami no Tou - Ouji no Kikan - 17_Telegram_HEVC.mkv':
  Metadata:
    COMPATIBLE_BRANDS: isomiso2avc1mp41
    MAJOR_BRAND     : isom
    MINOR_VERSION   : 512
    ENCODER         : Lavf61.7.100
  Duration: 00:23:49.42, start: -0.021000, bitrate: 1087 kb/s
  Stream #0:0: Video: hevc (Main 10), yuv420p10le(tv, bt709, progressive), 1920x1080 [SAR 1:1 DAR 16:9], 23.98 fps, 23.98 tbr, 1k tbn (default)
      Metadata:
        HANDLER_NAME    : VideoHandler
        VENDOR_ID       : [0][0][0][0]
        ENCODER         : Lavc61.19.100 libx265
        BPS             : 891527
        DURATION        : 00:23:47.592708333
        NUMBER_OF_FRAMES: 34228
        NUMBER_OF_BYTES : 159092226
        _STATISTICS_WRITING_APP: mkvpropedit v66.0.0 ('Josie') 64-bit
        _STATISTICS_WRITING_DATE_UTC: 2025-05-29 18:55:52
        _STATISTICS_TAGS: BPS DURATION NUMBER_OF_FRAMES NUMBER_OF_BYTES
  Stream #0:1: Audio: aac (LC), 48000 Hz, stereo, fltp (default)
      Metadata:
        HANDLER_NAME    : SoundHandler
        VENDOR_ID       : [0][0][0][0]
        ENCODER         : Lavc61.19.100 aac
        BPS             : 193508
        DURATION        : 00:23:49.418000000
        NUMBER_OF_FRAMES: 67005
        NUMBER_OF_BYTES : 34575580
        _STATISTICS_WRITING_APP: mkvpropedit v66.0.0 ('Josie') 64-bit
        _STATISTICS_WRITING_DATE_UTC: 2025-05-29 18:55:52
        _STATISTICS_TAGS: BPS DURATION NUMBER_OF_FRAMES NUMBER_OF_BYTES
Input #1, mov,mp4,m4a,3gp,3g2,mj2, from 'G:\Аниме\Онгоинги\!_36_Осень_2024\DreamCast\Башня Бога\ТВ-2\[DC] Kami no Tou - Ouji no Kikan - 17_Telegram.mp4':
  Metadata:
    major_brand     : isom
    minor_version   : 512
    compatible_brands: isomiso2avc1mp41
    encoder         : Lavf61.1.100
  Duration: 00:23:49.39, start: 0.000000, bitrate: 3596 kb/s
  Stream #1:0[0x1](und): Video: h264 (High) (avc1 / 0x31637661), yuv420p(tv, bt709, progressive), 1920x1080 [SAR 1:1 DAR 16:9], 3452 kb/s, 23.98 fps, 23.98 tbr, 24k tbn (default)
      Metadata:
        handler_name    : VideoHandler
        vendor_id       : [0][0][0][0]
        encoder         : Lavc61.3.100 h264_qsv
  Stream #1:1[0x2](und): Audio: aac (HE-AACv2) (mp4a / 0x6134706D), 48000 Hz, stereo, fltp, 144 kb/s (default)
      Metadata:
        handler_name    : SoundHandler
        vendor_id       : [0][0][0][0]
Stream mapping:
  Stream #0:0 (hevc) -> settb:default
  Stream #1:0 (h264) -> settb:default
  ssim:default -> Stream #0:0 (wrapped_avframe)
  Stream #0:1 -> #0:1 (aac (native) -> pcm_s16le (native))
Output #0, null, to 'pipe:':
  Metadata:
    COMPATIBLE_BRANDS: isomiso2avc1mp41
    MAJOR_BRAND     : isom
    MINOR_VERSION   : 512
    encoder         : Lavf61.7.100
  Stream #0:0: Video: wrapped_avframe, yuv420p10le(tv, bt709, progressive), 1920x1080 [SAR 1:1 DAR 16:9], q=2-31, 200 kb/s, 23.98 fps, 23.98 tbn
      Metadata:
        encoder         : Lavc61.19.100 wrapped_avframe
  Stream #0:1: Audio: pcm_s16le, 48000 Hz, stereo, s16, 1536 kb/s (default)
      Metadata:
        HANDLER_NAME    : SoundHandler
        VENDOR_ID       : [0][0][0][0]
        _STATISTICS_TAGS: BPS DURATION NUMBER_OF_FRAMES NUMBER_OF_BYTES
        BPS             : 193508
        DURATION        : 00:23:49.418000000
        NUMBER_OF_FRAMES: 67005
        NUMBER_OF_BYTES : 34575580
        _STATISTICS_WRITING_APP: mkvpropedit v66.0.0 ('Josie') 64-bit
        _STATISTICS_WRITING_DATE_UTC: 2025-05-29 18:55:52
        encoder         : Lavc61.19.100 pcm_s16le
frame=  167 fps=0.0 q=-0.0 size=N/A time=00:00:06.96 bitrate=N/A speed=13.5x    frame=  430 fps=414 q=-0.0 size=N/A time=00:00:17.93 bitrate=N/A speed=17.3x    frame=  670 fps=432 q=-0.0 size=N/A time=00:00:27.94 bitrate=N/A speed=  18x    frame=  924 fps=448 q=-0.0 size=N/A time=00:00:38.53 bitrate=N/A speed=18.7x    frame= 1160 fps=449 q=-0.0 size=N/A time=00:00:48.38 bitrate=N/A speed=18.7x    frame= 1381 fps=446 q=-0.0 size=N/A time=00:00:57.59 bitrate=N/A speed=18.6x    frame= 1654 fps=458 q=-0.0 size=N/A time=00:01:08.98 bitrate=N/A speed=19.1x    frame= 1899 fps=460 q=-0.0 size=N/A time=00:01:19.20 bitrate=N/A speed=19.2x    frame= 2144 fps=462 q=-0.0 size=N/A time=00:01:29.42 bitrate=N/A speed=19.3x    frame= 2404 fps=467 q=-0.0 size=N/A time=00:01:40.26 bitrate=N/A speed=19.5x    frame= 2680 fps=472 q=-0.0 size=N/A time=00:01:51.77 bitrate=N/A speed=19.7x    frame= 2929 fps=473 q=-0.0 size=N/A time=00:02:02.16 bitrate=N/A speed=19.7x    frame= 3213 fps=479 q=-0.0 size=N/A time=00:02:14.00 bitrate=N/A speed=  20x    frame= 3496 fps=484 q=-0.0 size=N/A time=00:02:25.81 bitrate=N/A speed=20.2x    frame= 3769 fps=487 q=-0.0 size=N/A time=00:02:37.19 bitrate=N/A speed=20.3x    frame= 3979 fps=482 q=-0.0 size=N/A time=00:02:45.95 bitrate=N/A speed=20.1x    frame= 4206 fps=479 q=-0.0 size=N/A time=00:02:55.42 bitrate=N/A speed=  20x    frame= 4424 fps=477 q=-0.0 size=N/A time=00:03:04.51 bitrate=N/A speed=19.9x    frame= 4666 fps=476 q=-0.0 size=N/A time=00:03:14.61 bitrate=N/A speed=19.9x    frame= 4896 fps=475 q=-0.0 size=N/A time=00:03:24.20 bitrate=N/A speed=19.8x    frame= 5153 fps=476 q=-0.0 size=N/A time=00:03:34.92 bitrate=N/A speed=19.8x    frame= 5358 fps=472 q=-0.0 size=N/A time=00:03:43.47 bitrate=N/A speed=19.7x    frame= 5558 fps=469 q=-0.0 size=N/A time=00:03:51.81 bitrate=N/A speed=19.6x    frame= 5780 fps=467 q=-0.0 size=N/A time=00:04:01.07 bitrate=N/A speed=19.5x    frame= 6010 fps=466 q=-0.0 size=N/A time=00:04:10.66 bitrate=N/A speed=19.4x    frame= 6241 fps=465 q=-0.0 size=N/A time=00:04:20.30 bitrate=N/A speed=19.4x    frame= 6504 fps=467 q=-0.0 size=N/A time=00:04:31.27 bitrate=N/A speed=19.5x    frame= 6763 fps=468 q=-0.0 size=N/A time=00:04:42.07 bitrate=N/A speed=19.5x    frame= 7019 fps=469 q=-0.0 size=N/A time=00:04:52.75 bitrate=N/A speed=19.6x    frame= 7293 fps=472 q=-0.0 size=N/A time=00:05:04.17 bitrate=N/A speed=19.7x    frame= 7523 fps=470 q=-0.0 size=N/A time=00:05:13.77 bitrate=N/A speed=19.6x    frame= 7648 fps=464 q=-0.0 size=N/A time=00:05:18.98 bitrate=N/A speed=19.3x    frame= 7767 fps=456 q=-0.0 size=N/A time=00:05:23.94 bitrate=N/A speed=  19x    frame= 8005 fps=457 q=-0.0 size=N/A time=00:05:33.87 bitrate=N/A speed=  19x    frame= 8295 fps=459 q=-0.0 size=N/A time=00:05:45.97 bitrate=N/A speed=19.2x    frame= 8530 fps=459 q=-0.0 size=N/A time=00:05:55.77 bitrate=N/A speed=19.2x    frame= 8784 fps=460 q=-0.0 size=N/A time=00:06:06.36 bitrate=N/A speed=19.2x    frame= 9069 fps=463 q=-0.0 size=N/A time=00:06:18.25 bitrate=N/A speed=19.3x    frame= 9352 fps=465 q=-0.0 size=N/A time=00:06:30.05 bitrate=N/A speed=19.4x    frame= 9630 fps=467 q=-0.0 size=N/A time=00:06:41.65 bitrate=N/A speed=19.5x    frame= 9918 fps=469 q=-0.0 size=N/A time=00:06:53.66 bitrate=N/A speed=19.6x    frame=10207 fps=471 q=-0.0 size=N/A time=00:07:05.71 bitrate=N/A speed=19.7x    frame=10482 fps=473 q=-0.0 size=N/A time=00:07:17.18 bitrate=N/A speed=19.7x    frame=10741 fps=473 q=-0.0 size=N/A time=00:07:27.98 bitrate=N/A speed=19.7x    frame=11013 fps=475 q=-0.0 size=N/A time=00:07:39.33 bitrate=N/A speed=19.8x    frame=11294 fps=476 q=-0.0 size=N/A time=00:07:51.05 bitrate=N/A speed=19.9x    frame=11577 fps=478 q=-0.0 size=N/A time=00:08:02.85 bitrate=N/A speed=19.9x    frame=11863 fps=479 q=-0.0 size=N/A time=00:08:14.78 bitrate=N/A speed=  20x    frame=12156 fps=481 q=-0.0 size=N/A time=00:08:27.00 bitrate=N/A speed=20.1x    frame=12443 fps=483 q=-0.0 size=N/A time=00:08:38.97 bitrate=N/A speed=20.1x    frame=12741 fps=484 q=-0.0 size=N/A time=00:08:51.40 bitrate=N/A speed=20.2x    frame=12988 fps=484 q=-0.0 size=N/A time=00:09:01.70 bitrate=N/A speed=20.2x    frame=13276 fps=486 q=-0.0 size=N/A time=00:09:13.71 bitrate=N/A speed=20.3x    frame=13434 fps=482 q=-0.0 size=N/A time=00:09:20.30 bitrate=N/A speed=20.1x    frame=13709 fps=483 q=-0.0 size=N/A time=00:09:31.77 bitrate=N/A speed=20.2x    frame=13977 fps=484 q=-0.0 size=N/A time=00:09:42.95 bitrate=N/A speed=20.2x    frame=14170 fps=482 q=-0.0 size=N/A time=00:09:51.00 bitrate=N/A speed=20.1x    frame=14433 fps=482 q=-0.0 size=N/A time=00:10:01.97 bitrate=N/A speed=20.1x    frame=14688 fps=483 q=-0.0 size=N/A time=00:10:12.61 bitrate=N/A speed=20.1x    frame=14952 fps=483 q=-0.0 size=N/A time=00:10:23.62 bitrate=N/A speed=20.1x    frame=15210 fps=483 q=-0.0 size=N/A time=00:10:34.38 bitrate=N/A speed=20.2x    frame=15472 fps=484 q=-0.0 size=N/A time=00:10:45.31 bitrate=N/A speed=20.2x    frame=15760 fps=485 q=-0.0 size=N/A time=00:10:57.32 bitrate=N/A speed=20.2x    frame=15986 fps=484 q=-0.0 size=N/A time=00:11:06.74 bitrate=N/A speed=20.2x    frame=16247 fps=484 q=-0.0 size=N/A time=00:11:17.63 bitrate=N/A speed=20.2x    frame=16503 fps=485 q=-0.0 size=N/A time=00:11:28.31 bitrate=N/A speed=20.2x    frame=16748 fps=485 q=-0.0 size=N/A time=00:11:38.53 bitrate=N/A speed=20.2x    frame=17009 fps=485 q=-0.0 size=N/A time=00:11:49.41 bitrate=N/A speed=20.2x    frame=17260 fps=485 q=-0.0 size=N/A time=00:11:59.88 bitrate=N/A speed=20.2x    frame=17521 fps=485 q=-0.0 size=N/A time=00:12:10.77 bitrate=N/A speed=20.2x    frame=17809 fps=486 q=-0.0 size=N/A time=00:12:22.78 bitrate=N/A speed=20.3x    frame=18073 fps=487 q=-0.0 size=N/A time=00:12:33.79 bitrate=N/A speed=20.3x    frame=18354 fps=487 q=-0.0 size=N/A time=00:12:45.51 bitrate=N/A speed=20.3x    frame=18629 fps=488 q=-0.0 size=N/A time=00:12:56.98 bitrate=N/A speed=20.4x    frame=18891 fps=488 q=-0.0 size=N/A time=00:13:07.91 bitrate=N/A speed=20.4x    frame=19187 fps=489 q=-0.0 size=N/A time=00:13:20.25 bitrate=N/A speed=20.4x    frame=19420 fps=489 q=-0.0 size=N/A time=00:13:29.97 bitrate=N/A speed=20.4x    frame=19695 fps=489 q=-0.0 size=N/A time=00:13:41.44 bitrate=N/A speed=20.4x    frame=19974 fps=490 q=-0.0 size=N/A time=00:13:53.08 bitrate=N/A speed=20.4x    frame=20257 fps=491 q=-0.0 size=N/A time=00:14:04.88 bitrate=N/A speed=20.5x    frame=20517 fps=491 q=-0.0 size=N/A time=00:14:15.72 bitrate=N/A speed=20.5x    frame=20799 fps=492 q=-0.0 size=N/A time=00:14:27.49 bitrate=N/A speed=20.5x    frame=21072 fps=492 q=-0.0 size=N/A time=00:14:38.87 bitrate=N/A speed=20.5x    frame=21344 fps=493 q=-0.0 size=N/A time=00:14:50.22 bitrate=N/A speed=20.5x    frame=21620 fps=493 q=-0.0 size=N/A time=00:15:01.73 bitrate=N/A speed=20.6x    frame=21894 fps=494 q=-0.0 size=N/A time=00:15:13.16 bitrate=N/A speed=20.6x    frame=22145 fps=494 q=-0.0 size=N/A time=00:15:23.63 bitrate=N/A speed=20.6x    frame=22421 fps=494 q=-0.0 size=N/A time=00:15:35.14 bitrate=N/A speed=20.6x    frame=22701 fps=495 q=-0.0 size=N/A time=00:15:46.82 bitrate=N/A speed=20.6x    frame=22979 fps=495 q=-0.0 size=N/A time=00:15:58.41 bitrate=N/A speed=20.6x    frame=23263 fps=496 q=-0.0 size=N/A time=00:16:10.26 bitrate=N/A speed=20.7x    frame=23549 fps=496 q=-0.0 size=N/A time=00:16:22.18 bitrate=N/A speed=20.7x    frame=23838 fps=497 q=-0.0 size=N/A time=00:16:34.24 bitrate=N/A speed=20.7x    frame=24120 fps=497 q=-0.0 size=N/A time=00:16:46.00 bitrate=N/A speed=20.7x    frame=24376 fps=497 q=-0.0 size=N/A time=00:16:56.68 bitrate=N/A speed=20.7x    frame=24653 fps=498 q=-0.0 size=N/A time=00:17:08.23 bitrate=N/A speed=20.8x    frame=24922 fps=498 q=-0.0 size=N/A time=00:17:19.45 bitrate=N/A speed=20.8x    frame=25174 fps=498 q=-0.0 size=N/A time=00:17:29.96 bitrate=N/A speed=20.8x    frame=25430 fps=498 q=-0.0 size=N/A time=00:17:40.64 bitrate=N/A speed=20.8x    frame=25722 fps=499 q=-0.0 size=N/A time=00:17:52.82 bitrate=N/A speed=20.8x    frame=26001 fps=499 q=-0.0 size=N/A time=00:18:04.45 bitrate=N/A speed=20.8x    frame=26304 fps=500 q=-0.0 size=N/A time=00:18:17.09 bitrate=N/A speed=20.9x    frame=26580 fps=500 q=-0.0 size=N/A time=00:18:28.60 bitrate=N/A speed=20.9x    frame=26877 fps=501 q=-0.0 size=N/A time=00:18:40.99 bitrate=N/A speed=20.9x    frame=27148 fps=501 q=-0.0 size=N/A time=00:18:52.29 bitrate=N/A speed=20.9x    frame=27455 fps=502 q=-0.0 size=N/A time=00:19:05.10 bitrate=N/A speed=20.9x    frame=27738 fps=503 q=-0.0 size=N/A time=00:19:16.90 bitrate=N/A speed=  21x    frame=27995 fps=503 q=-0.0 size=N/A time=00:19:27.62 bitrate=N/A speed=  21x    frame=28250 fps=503 q=-0.0 size=N/A time=00:19:38.26 bitrate=N/A speed=  21x    frame=28542 fps=503 q=-0.0 size=N/A time=00:19:50.43 bitrate=N/A speed=  21x    frame=28811 fps=503 q=-0.0 size=N/A time=00:20:01.65 bitrate=N/A speed=  21x    frame=29110 fps=504 q=-0.0 size=N/A time=00:20:14.17 bitrate=N/A speed=  21x    frame=29378 fps=504 q=-0.0 size=N/A time=00:20:25.30 bitrate=N/A speed=  21x    frame=29627 fps=504 q=-0.0 size=N/A time=00:20:35.69 bitrate=N/A speed=  21x    frame=29884 fps=504 q=-0.0 size=N/A time=00:20:46.41 bitrate=N/A speed=  21x    frame=30150 fps=504 q=-0.0 size=N/A time=00:20:57.50 bitrate=N/A speed=  21x    frame=30419 fps=504 q=-0.0 size=N/A time=00:21:08.72 bitrate=N/A speed=  21x    frame=30670 fps=504 q=-0.0 size=N/A time=00:21:19.19 bitrate=N/A speed=  21x    frame=30922 fps=504 q=-0.0 size=N/A time=00:21:29.70 bitrate=N/A speed=  21x    frame=31197 fps=504 q=-0.0 size=N/A time=00:21:41.17 bitrate=N/A speed=  21x    frame=31489 fps=505 q=-0.0 size=N/A time=00:21:53.35 bitrate=N/A speed=  21x    frame=31750 fps=505 q=-0.0 size=N/A time=00:22:04.23 bitrate=N/A speed=  21x    frame=32022 fps=505 q=-0.0 size=N/A time=00:22:15.58 bitrate=N/A speed=21.1x    frame=32206 fps=504 q=-0.0 size=N/A time=00:22:23.25 bitrate=N/A speed=  21x    frame=32363 fps=502 q=-0.0 size=N/A time=00:22:29.80 bitrate=N/A speed=20.9x    frame=32512 fps=500 q=-0.0 size=N/A time=00:22:36.02 bitrate=N/A speed=20.9x    frame=32678 fps=499 q=-0.0 size=N/A time=00:22:42.94 bitrate=N/A speed=20.8x    frame=32822 fps=497 q=-0.0 size=N/A time=00:22:48.95 bitrate=N/A speed=20.7x    frame=32994 fps=496 q=-0.0 size=N/A time=00:22:56.12 bitrate=N/A speed=20.7x    frame=33165 fps=495 q=-0.0 size=N/A time=00:23:03.25 bitrate=N/A speed=20.6x    frame=33300 fps=493 q=-0.0 size=N/A time=00:23:08.88 bitrate=N/A speed=20.6x    frame=33458 fps=491 q=-0.0 size=N/A time=00:23:15.47 bitrate=N/A speed=20.5x    frame=33619 fps=490 q=-0.0 size=N/A time=00:23:22.19 bitrate=N/A speed=20.4x    frame=33745 fps=488 q=-0.0 size=N/A time=00:23:27.44 bitrate=N/A speed=20.4x    frame=33895 fps=487 q=-0.0 size=N/A time=00:23:33.70 bitrate=N/A speed=20.3x    frame=34107 fps=486 q=-0.0 size=N/A time=00:23:42.54 bitrate=N/A speed=20.3x    [Parsed_ssim_10 @ 0000015a528291c0] SSIM Y:0.995269 (23.250456) U:0.995157 (23.148941) V:0.995037 (23.042127) All:0.995212 (23.198087)
[out#0/null @ 0000015a503d5880] video:14707KiB audio:268020KiB subtitle:0KiB other streams:0KiB global headers:0KiB muxing overhead: unknown
frame=34228 fps=486 q=-0.0 Lsize=N/A time=00:23:47.59 bitrate=N/A speed=20.3x    
